<svg id="Layer_1" data-name="Layer 1" xmlns="http://www.w3.org/2000/svg" viewBox="0 0 304.01 399.42"><defs><style>.cls-1{fill:#00ae42;}.cls-2{fill:#002a3a;}</style></defs><path class="cls-1" d="M62.29,15.08a21.46,21.46,0,0,0-32.43,13.5l-16.1,73A32.65,32.65,0,0,0,33,138.73l100.93,42.42a.34.34,0,0,0,.31,0,.38.38,0,0,0,.18-.25C145.83,115,117.42,50,62.29,15.08Z" transform="translate(-12.99 -11.75)"/><path class="cls-2" d="M307.23,411.18a4.45,4.45,0,0,1-1.67-.34L82.87,317.24a75.52,75.52,0,0,1-44.51-85.91L73.89,70.23a50.85,50.85,0,0,1,76.85-32c123,77.88,186.09,222.87,160.71,369.38a4.3,4.3,0,0,1-4.22,3.57ZM123.54,37.38A43.81,43.81,0,0,0,80.75,71.74L45.23,232.84A68.51,68.51,0,0,0,85.6,310.77L305.1,403C328.44,260.48,266.63,119.93,147,44.17h0A43.81,43.81,0,0,0,123.54,37.38Z" transform="translate(-12.99 -11.75)"/><path class="cls-2" d="M76.57,212.41c-3.61,2.48-10.93,4.64-15.47,5.06V199.93c4.43-.62,10.93-3.51,15.47-6.7H93.69v72.2H76.57Z" transform="translate(-12.99 -11.75)"/><path class="cls-2" d="M99.25,229.23c0-21.46,9-37.55,27.75-37.55s27.64,16.09,27.64,37.55c0,21-9,37.54-27.43,37.54C108.33,266.77,99.25,250.79,99.25,229.23Zm38.27,0c0-13.41-3.3-21.56-10.52-21.56-7.53,0-10.62,8.15-10.62,21.56,0,14,3.2,21.56,10.83,21.56C134.22,250.79,137.52,242.84,137.52,229.23Z" transform="translate(-12.99 -11.75)"/><path class="cls-2" d="M156.6,229.23c0-21.46,9-37.55,27.74-37.55S212,207.77,212,229.23c0,21-9,37.54-27.43,37.54C165.67,266.77,156.6,250.79,156.6,229.23Zm38.26,0c0-13.41-3.3-21.56-10.52-21.56-7.53,0-10.62,8.15-10.62,21.56,0,14,3.19,21.56,10.83,21.56C191.56,250.79,194.86,242.84,194.86,229.23Z" transform="translate(-12.99 -11.75)"/><path class="cls-2" d="M213.61,229.23c0-21.46,9-37.55,27.74-37.55S269,207.77,269,229.23c0,21-9,37.54-27.44,37.54C222.69,266.77,213.61,250.79,213.61,229.23Zm38.27,0c0-13.41-3.3-21.56-10.53-21.56-7.52,0-10.62,8.15-10.62,21.56,0,14,3.2,21.56,10.83,21.56C248.58,250.79,251.88,242.84,251.88,229.23Z" transform="translate(-12.99 -11.75)"/><path class="cls-2" d="M109.24,300.71c-.82,5-3.92,6.72-8.85,7.54l-.64-4.07c3.44-.63,5-1.79,5-5.68V285.77h4.74v10.94h3.77c1.16,0,1.35.37,1.35,1.08v1.68c0,.94-.26,1.24-1.35,1.24Z" transform="translate(-12.99 -11.75)"/><path class="cls-2" d="M126.08,300.71a9.11,9.11,0,0,1-5.45-1.5,5.09,5.09,0,0,1-3.81,1.5h-3.89c-.93,0-1.34-.19-1.34-1.24v-1.68c0-.71.15-1.08,1.34-1.08h2.39c1.31,0,2-.78,2-2.39v-8.55h4.78v9A7.78,7.78,0,0,1,122,296a10.23,10.23,0,0,0,3.89.71h.45c1.15,0,1.3.37,1.3,1.08v1.68c0,.9-.18,1.24-1.3,1.24Zm-6.35,7.58a2.34,2.34,0,0,1-2.35-2.35,2.34,2.34,0,0,1,4.67,0A2.33,2.33,0,0,1,119.73,308.29Z" transform="translate(-12.99 -11.75)"/><path class="cls-2" d="M126,300.71c-.94,0-1.35-.19-1.35-1.24v-1.68c0-.71.15-1.08,1.35-1.08h4.74V285.77h4.75v14.94Zm3.66,7.58a2.35,2.35,0,0,1-2.36-2.35,2.34,2.34,0,1,1,2.36,2.35Zm5.45,0a2.33,2.33,0,0,1-2.31-2.35,2.28,2.28,0,0,1,2.31-2.32,2.34,2.34,0,1,1,0,4.67Z" transform="translate(-12.99 -11.75)"/><path class="cls-2" d="M145.84,300.71c-3.18,0-5.64-1.8-5.64-6V274.52h4.74v19.24c0,1.64.26,2.95,2.06,2.95h1.12c1.15,0,1.34.37,1.34,1.08v1.68c0,.9-.26,1.24-1.34,1.24Z" transform="translate(-12.99 -11.75)"/><path class="cls-2" d="M147.81,300.71c-.89,0-1.34-.19-1.34-1.24v-1.68c0-.71.34-1.08,1.34-1.08h5.79a7.61,7.61,0,0,1-1-3.77c0-4.67,3.66-7.88,8.29-7.88s7.51,2.95,7.51,7.69v8Zm15.88-7.29c0-2.72-1.12-4.48-3.25-4.48s-3.32,1.79-3.32,3.92c0,1.8,1.12,3.85,4.14,3.85h2.43ZM161,281.25a2.31,2.31,0,0,1-1.68-.71,2.35,2.35,0,0,1,0-3.29,2.39,2.39,0,0,1,1.68-.67,2.3,2.3,0,0,1,1.64.67,2.33,2.33,0,0,1,0,3.29A2.22,2.22,0,0,1,161,281.25Z" transform="translate(-12.99 -11.75)"/><path class="cls-2" d="M183.07,314.94c-1-2.8-2.47-8.14-2.47-11.21,0-4.22,1.83-7.17,6.32-9,1.53-5.34,4.44-9.22,8.92-9.22a7.8,7.8,0,0,1,7.89,7.95c0,4.45-3.25,7.47-7.85,7.47a11,11,0,0,1-6.68-2.35c-2.58.45-3.93,2.13-3.93,5a29.7,29.7,0,0,0,2.21,9.9Zm12.33-18c2.35,0,3.92-.64,3.92-3.33,0-1.94-1.46-4.29-3.66-4.29-2.84,0-4.3,3.88-4.75,6.2C191.74,296.34,194.28,296.9,195.4,296.9Z" transform="translate(-12.99 -11.75)"/><path class="cls-2" d="M234.2,300.71a9.27,9.27,0,0,1-5.45-1.5,5,5,0,0,1-3.78,1.5H207.9v-4h8V280.65h4.71v16.06h2.76c1.53,0,2.13-.75,2.13-2.5V274.45h4.78v20.28a8.18,8.18,0,0,1-.11,1.27,10.14,10.14,0,0,0,3.88.71h.41c1.2,0,1.35.37,1.35,1.08v1.68c0,.9-.19,1.24-1.35,1.24Z" transform="translate(-12.99 -11.75)"/><path class="cls-2" d="M260.68,300.71a10.31,10.31,0,0,1-6-1.83c-.67,1-1.94,1.83-4.25,1.83h-.64a9.51,9.51,0,0,1-5.94-1.87,5,5,0,0,1-4.14,1.87h-5.57c-.63,0-1-.08-1.12-.3a1.51,1.51,0,0,1-.22-.94v-1.68c0-.71.14-1.08,1.34-1.08H238c1.61,0,2.17-.75,2.17-2.58v-4.74H245v5.83l0,.33a8.09,8.09,0,0,0,3.89,1.16c1.75,0,2.24-.82,2.24-2.5v-6.46h4.78v7.09l0,.79a9.45,9.45,0,0,0,4.67,1.08h1.38V285.77h4.79v14.94Z" transform="translate(-12.99 -11.75)"/></svg>