<?xml version="1.0" encoding="utf-8"?>
<!-- Generator: Adobe Illustrator 25.4.1, SVG Export Plug-In . SVG Version: 6.00 Build 0)  -->
<svg version="1.1" id="Layer_1" xmlns="http://www.w3.org/2000/svg" xmlns:xlink="http://www.w3.org/1999/xlink" x="0px" y="0px"
	 viewBox="0 0 304 399.4" style="enable-background:new 0 0 304 399.4;" xml:space="preserve">
<style type="text/css">
	.st0{fill:#00AE42;}
	.st1{fill:#002A3A;}
</style>
<path class="st0" d="M49.3,3.3C39.3-3,26,0,19.7,10c-1.3,2.1-2.3,4.4-2.8,6.8l-16.1,73c-3.4,15.4,4.7,31,19.2,37.1l100.9,42.4
	c0.1,0,0.2,0,0.3,0c0.1-0.1,0.2-0.1,0.2-0.2C132.8,103.2,104.4,38.2,49.3,3.3z"/>
<path class="st1" d="M294.2,399.4c-0.6,0-1.1-0.1-1.7-0.3L69.9,305.5c-33.6-14.1-52.4-50.3-44.5-85.9L60.9,58.5
	c6.1-27.4,33.2-44.7,60.6-38.7c5.8,1.3,11.2,3.5,16.2,6.7c123,77.9,186.1,222.9,160.7,369.4C298.1,397.9,296.3,399.4,294.2,399.4
	L294.2,399.4z M110.6,25.6C90,25.6,72.2,39.9,67.8,60L32.2,221.1c-7.1,32.3,9.9,65.1,40.4,77.9l219.5,92.2
	C315.5,248.7,253.6,108.2,134,32.4l0,0C127,28,118.9,25.6,110.6,25.6z"/>
<path class="st1" d="M96.2,289c-0.8,5-3.9,6.7-8.8,7.5l-0.6-4.1c3.4-0.6,5-1.8,5-5.7V274h4.7V285h3.8c1.2,0,1.3,0.4,1.3,1.1v1.7
	c0,0.9-0.3,1.2-1.3,1.2L96.2,289z"/>
<path class="st1" d="M113.1,289c-1.9,0.1-3.8-0.4-5.4-1.5c-1,1-2.4,1.6-3.8,1.5h-3.9c-0.9,0-1.3-0.2-1.3-1.2V286
	c0-0.7,0.2-1.1,1.3-1.1h2.4c1.3,0,2-0.8,2-2.4V274h4.8v9c0,0.4,0,0.8-0.1,1.2c1.2,0.5,2.6,0.7,3.9,0.7h0.4c1.2,0,1.3,0.4,1.3,1.1
	v1.7c0,0.9-0.2,1.2-1.3,1.2L113.1,289z M106.7,296.5c-1.3,0-2.3-1-2.3-2.3c0,0,0,0,0,0c0.1-1.3,1.2-2.3,2.5-2.2
	c1.2,0.1,2.1,1,2.2,2.2C109.1,295.5,108,296.5,106.7,296.5C106.7,296.5,106.7,296.5,106.7,296.5L106.7,296.5z"/>
<path class="st1" d="M113,289c-0.9,0-1.3-0.2-1.3-1.2V286c0-0.7,0.2-1.1,1.3-1.1h4.7V274h4.8V289H113z M116.7,296.5
	c-1.3,0-2.4-1-2.4-2.3c0,0,0,0,0,0c0-1.3,1.1-2.3,2.4-2.3c1.3,0,2.3,1.1,2.3,2.4C119,295.5,118,296.5,116.7,296.5z M122.1,296.5
	c-1.3,0-2.3-1.1-2.3-2.3c0,0,0,0,0,0c0-1.3,1-2.3,2.2-2.3c0,0,0,0,0.1,0c1.3-0.1,2.4,0.9,2.5,2.2s-0.9,2.4-2.2,2.5
	C122.3,296.5,122.2,296.5,122.1,296.5z"/>
<path class="st1" d="M132.8,289c-3.2,0-5.6-1.8-5.6-6v-20.2h4.7V282c0,1.6,0.3,3,2.1,3h1.1c1.1,0,1.3,0.4,1.3,1.1v1.7
	c0,0.9-0.3,1.2-1.3,1.2L132.8,289z"/>
<path class="st1" d="M134.8,289c-0.9,0-1.3-0.2-1.3-1.2V286c0-0.7,0.3-1.1,1.3-1.1h5.8c-0.7-1.1-1-2.4-1-3.8c0-4.7,3.7-7.9,8.3-7.9
	s7.5,3,7.5,7.7v8L134.8,289z M150.7,281.7c0-2.7-1.1-4.5-3.2-4.5s-3.3,1.8-3.3,3.9c0,1.8,1.1,3.9,4.1,3.9h2.4L150.7,281.7z
	 M148,269.5c-0.6,0-1.2-0.3-1.7-0.7c-0.9-0.9-0.9-2.4,0-3.3c0.5-0.4,1.1-0.7,1.7-0.7c0.6,0,1.2,0.2,1.6,0.7c0.9,0.9,0.9,2.4,0,3.3
	C149.2,269.2,148.6,269.5,148,269.5z"/>
<path class="st1" d="M170.1,303.2c-1-2.8-2.5-8.1-2.5-11.2c0-4.2,1.8-7.2,6.3-9c1.5-5.3,4.4-9.2,8.9-9.2c4.3-0.1,7.8,3.4,7.9,7.7
	c0,0.1,0,0.2,0,0.2c0,4.5-3.2,7.5-7.9,7.5c-2.4,0-4.8-0.9-6.7-2.4c-2.6,0.5-3.9,2.1-3.9,5c0.2,3.4,0.9,6.8,2.2,9.9L170.1,303.2z
	 M182.4,285.2c2.4,0,3.9-0.6,3.9-3.3c0-1.9-1.5-4.3-3.7-4.3c-2.8,0-4.3,3.9-4.8,6.2C178.8,284.6,181.3,285.1,182.4,285.2
	L182.4,285.2z"/>
<path class="st1" d="M221.2,289c-1.9,0.1-3.8-0.4-5.4-1.5c-1,1-2.4,1.6-3.8,1.5h-17.1v-4h8v-16.1h4.7V285h2.8c1.5,0,2.1-0.8,2.1-2.5
	v-19.8h4.8V283c0,0.4,0,0.9-0.1,1.3c1.2,0.5,2.6,0.7,3.9,0.7h0.4c1.2,0,1.4,0.4,1.4,1.1v1.7c0,0.9-0.2,1.2-1.4,1.2L221.2,289z"/>
<path class="st1" d="M247.7,289c-2.1,0-4.2-0.6-6-1.8c-0.7,1-1.9,1.8-4.2,1.8h-0.6c-2.1,0.1-4.2-0.6-5.9-1.9c-1,1.3-2.5,1.9-4.1,1.9
	h-5.6c-0.6,0-1-0.1-1.1-0.3c-0.2-0.3-0.3-0.6-0.2-0.9V286c0-0.7,0.1-1.1,1.3-1.1h3.9c1.6,0,2.2-0.8,2.2-2.6v-4.7h4.8v5.8v0.3
	c1.2,0.7,2.5,1.1,3.9,1.2c1.8,0,2.2-0.8,2.2-2.5V276h4.8v7.1v0.8c1.4,0.8,3,1.1,4.7,1.1h1.4V274h4.8V289H247.7z"/>
<g>
	<path class="st1" d="M63.8,230.3l15.7-4.5c0.1,5.6,4,10.4,10.2,10.4c5.9,0,9.9-4,9.9-9.4c0-5.6-4.1-9.4-9.9-9.4
		c-1.3,0-2.7,0.2-3.7,0.6l-8.5-10.3L92,194.7H66.6v-15.9h45.3v15.9l-10.1,9.8c6.7,2,14.8,7.8,14.8,22.3c0,14.8-11.2,25.3-26.9,25.3
		C73.8,252.1,63.8,242,63.8,230.3z"/>
	<path class="st1" d="M123.7,214.6c0-21.3,8.9-37.4,27.6-37.4c18.6,0,27.5,16,27.5,37.4c0,20.9-8.9,37.4-27.3,37.4
		C132.7,252,123.7,236.1,123.7,214.6z M161.8,214.6c0-13.3-3.3-21.4-10.5-21.4c-7.5,0-10.6,8.1-10.6,21.4c0,14,3.2,21.5,10.8,21.5
		C158.5,236.1,161.8,228.2,161.8,214.6z"/>
	<path class="st1" d="M185.9,214.6c0-21.3,8.9-37.4,27.6-37.4c18.6,0,27.5,16,27.5,37.4c0,20.9-8.9,37.4-27.3,37.4
		C194.9,252,185.9,236.1,185.9,214.6z M223.9,214.6c0-13.3-3.3-21.4-10.5-21.4c-7.5,0-10.6,8.1-10.6,21.4c0,14,3.2,21.5,10.8,21.5
		C220.7,236.1,223.9,228.2,223.9,214.6z"/>
</g>
</svg>
